<?xml version="1.0" standalone="no"?>
<!DOCTYPE svg PUBLIC "-//W3C//DTD SVG 20010904//EN"
 "http://www.w3.org/TR/2001/REC-SVG-20010904/DTD/svg10.dtd">
<svg version="1.0" xmlns="http://www.w3.org/2000/svg"
 width="1024.000000pt" height="1024.000000pt" viewBox="0 0 1024.000000 1024.000000"
 preserveAspectRatio="xMidYMid meet">

<g transform="translate(0.000000,1024.000000) scale(0.100000,-0.100000)"
fill="#000000" stroke="none">
<path d="M3635 9276 c-124 -35 -189 -118 -189 -241 0 -85 23 -135 88 -192 47
-41 54 -44 236 -97 192 -56 297 -114 403 -222 102 -105 160 -343 179 -732 l3
-54 -70 8 c-38 4 -151 7 -250 7 -195 -1 -347 -21 -528 -68 -53 -14 -101 -25
-106 -25 -4 0 -19 28 -31 63 -46 127 -157 325 -257 458 -172 228 -437 428
-663 498 -313 98 -555 52 -644 -122 -53 -104 -33 -235 45 -301 81 -69 140 -77
340 -51 63 9 175 16 249 16 116 0 148 -4 225 -26 211 -61 335 -184 483 -481
l61 -122 -122 -60 c-184 -90 -338 -203 -497 -362 -162 -162 -246 -276 -340
-465 -149 -301 -211 -608 -189 -935 24 -355 154 -638 401 -876 152 -146 290
-230 511 -314 l99 -38 -79 -42 c-368 -200 -557 -360 -649 -545 -62 -126 -56
-262 16 -374 61 -94 151 -152 290 -186 36 -9 72 -25 81 -36 23 -26 13 -67 -65
-249 -110 -255 -146 -398 -146 -584 0 -157 32 -255 112 -342 58 -63 129 -95
228 -101 l81 -6 60 -87 c137 -201 347 -415 536 -547 98 -69 256 -146 353 -173
92 -25 301 -28 425 -6 304 54 668 199 919 364 228 150 370 332 446 572 15 47
31 84 36 84 5 -1 41 -11 80 -23 l71 -21 6 -143 c6 -162 32 -272 94 -389 36
-68 140 -199 186 -234 l26 -19 -40 -64 c-58 -95 -81 -165 -83 -246 -1 -81 22
-130 78 -164 49 -31 137 -29 203 4 104 52 255 242 321 405 29 71 35 97 35 157
-1 88 -20 132 -101 229 -72 85 -111 142 -147 214 -26 51 -65 154 -65 170 0 5
46 11 103 15 112 7 213 25 323 57 l72 20 224 -135 c124 -75 246 -146 271 -158
45 -22 48 -22 64 -6 17 17 14 29 -61 245 -111 321 -105 287 -62 352 126 190
229 491 272 795 22 154 22 439 0 589 -20 135 -66 325 -112 459 -74 215 -233
503 -374 675 -28 35 -50 65 -48 66 2 1 41 14 88 30 492 167 1002 518 1315 906
292 361 431 736 394 1066 -37 338 -256 570 -607 643 -78 16 -296 14 -393 -5
-163 -30 -357 -99 -505 -181 l-66 -36 6 39 c15 86 23 297 15 389 -20 241 -85
430 -202 589 -157 212 -420 314 -672 261 -368 -78 -701 -525 -860 -1154 -29
-117 -75 -395 -75 -458 0 -24 -4 -43 -8 -43 -4 0 -37 30 -72 66 -201 205 -520
384 -791 444 l-57 13 -7 151 c-14 320 -57 548 -147 781 -101 260 -245 462
-405 567 -112 74 -264 105 -368 74z m3021 -647 c230 -42 391 -270 433 -614 19
-154 14 -287 -20 -517 l-11 -76 -82 -65 c-112 -89 -290 -256 -392 -368 -296
-324 -528 -711 -624 -1039 -24 -83 -30 -93 -51 -85 -11 4 -14 45 -15 223 -1
184 -4 232 -22 316 -33 149 -84 292 -158 439 l-65 132 26 190 c72 528 219 937
433 1207 80 101 152 162 247 209 114 57 189 69 301 48z m1574 -1061 c155 -29
301 -140 370 -282 85 -174 77 -371 -27 -635 -83 -211 -222 -410 -438 -626
-250 -251 -498 -422 -850 -587 -119 -56 -354 -148 -378 -148 -7 0 -31 18 -52
41 -145 150 -448 349 -682 447 -29 13 -53 29 -53 37 0 8 15 56 34 107 133 366
331 675 631 986 160 166 281 268 451 381 358 238 700 334 994 279z m-3913 -33
c742 -97 1264 -563 1378 -1229 72 -424 -69 -875 -364 -1166 -92 -91 -228 -193
-318 -239 l-43 -21 -50 34 c-149 103 -339 117 -682 50 -209 -40 -623 -170
-793 -248 -70 -32 -70 -32 -201 -1 -279 66 -478 170 -657 344 -233 226 -339
522 -324 904 14 403 174 767 461 1052 223 221 472 367 781 456 99 29 288 65
375 72 121 9 331 5 437 -8z m1674 -1904 c191 -65 180 -59 173 -89 -83 -348
-184 -567 -364 -787 -152 -185 -388 -375 -565 -456 -64 -29 -128 -38 -140 -19
-3 5 4 40 15 77 38 121 37 214 -4 348 -5 16 2 25 36 44 142 78 326 225 410
325 122 146 236 355 280 513 13 46 28 83 34 83 6 0 62 -18 125 -39z m865 -593
c40 -48 92 -115 114 -149 49 -71 49 -69 -6 -216 -166 -446 -520 -873 -922
-1110 -136 -80 -344 -173 -388 -173 -6 0 -17 26 -24 58 -16 71 -70 229 -104
301 l-25 55 110 58 c313 165 561 383 762 671 127 181 233 412 272 592 10 44
19 86 22 94 5 18 88 -61 189 -181z m-2085 -274 c63 -29 114 -77 141 -132 32
-66 33 -199 1 -257 -36 -69 -111 -129 -244 -195 -141 -71 -198 -112 -252 -178
-36 -45 -82 -162 -75 -193 2 -9 -34 -33 -102 -66 -58 -29 -108 -53 -112 -53
-14 0 -8 136 8 190 31 106 74 149 262 265 152 93 299 217 342 288 63 103 -28
169 -209 153 -276 -25 -837 -209 -1214 -397 -282 -142 -583 -344 -615 -413
-26 -57 35 -124 103 -113 18 3 75 34 126 70 343 234 805 451 1238 578 75 22
146 44 159 49 56 23 11 -11 -104 -80 -144 -86 -203 -142 -244 -233 -77 -171
-75 -378 5 -626 43 -133 65 -230 65 -292 0 -172 -130 -274 -267 -208 -51 25
-99 87 -149 195 -119 256 -134 285 -180 334 -57 61 -105 79 -164 61 -82 -24
-143 -102 -166 -209 -19 -90 -18 -163 6 -392 11 -107 20 -219 20 -250 0 -198
-134 -380 -281 -382 -51 -1 -86 24 -119 83 -21 38 -25 59 -28 159 -3 103 0
127 26 230 17 64 60 190 96 281 78 197 96 262 96 345 0 121 -53 162 -292 228
-98 28 -148 88 -148 178 1 247 731 687 1512 912 136 39 299 76 393 90 17 2 95
3 175 2 124 -1 152 -4 191 -22z m784 -501 c-67 -106 -131 -168 -226 -222 -100
-56 -161 -72 -324 -81 -168 -10 -233 -24 -342 -75 -42 -19 -78 -34 -80 -32
-11 12 92 95 152 123 81 37 138 50 290 63 61 6 136 17 167 26 106 27 282 129
347 199 32 34 38 33 16 -1z m1824 -416 c6 -62 11 -173 11 -249 l0 -136 -52
-79 c-70 -106 -305 -339 -438 -435 -58 -41 -152 -104 -210 -138 -127 -77 -367
-194 -383 -187 -12 5 -57 117 -77 196 l-11 44 -46 -44 c-74 -73 -133 -158
-186 -269 -28 -58 -52 -107 -53 -109 -2 -2 -46 9 -97 25 l-92 28 0 172 0 171
75 18 c423 99 891 413 1229 822 68 83 202 291 246 382 l40 82 17 -91 c9 -50
22 -142 27 -203z m-2052 -184 c66 -117 138 -342 179 -558 36 -190 45 -505 20
-668 -58 -365 -227 -567 -641 -762 -293 -139 -574 -217 -785 -219 -107 -1
-136 2 -199 23 -78 26 -197 93 -290 163 -132 101 -339 321 -449 478 l-32 45
54 58 c149 160 188 343 146 684 -23 189 -24 343 -3 364 14 14 24 -4 103 -181
120 -269 210 -361 369 -381 212 -26 401 118 442 337 16 86 5 203 -31 319 -17
55 -32 106 -33 113 -2 12 39 33 188 98 6 2 19 -14 30 -37 10 -22 42 -61 70
-86 130 -118 295 -134 480 -44 104 50 189 115 277 212 40 43 75 79 78 79 4 0
16 -17 27 -37z m822 -1265 c-13 -68 -10 -224 6 -331 26 -173 96 -346 184 -457
l36 -45 -43 34 c-51 40 -141 149 -170 207 -96 190 -101 391 -17 622 10 26 12
10 4 -30z"/>
<path d="M4545 6770 c-176 -38 -304 -156 -364 -337 -24 -71 -28 -189 -10 -275
32 -154 137 -289 276 -355 68 -33 89 -38 169 -41 69 -3 105 0 145 13 162 52
285 197 324 381 18 87 18 121 0 209 -37 176 -161 325 -319 384 -62 23 -166 33
-221 21z m276 -181 c76 -38 100 -147 49 -219 -89 -125 -290 -63 -290 89 0 121
126 189 241 130z"/>
<path d="M2895 6537 c-113 -38 -196 -109 -252 -214 -132 -247 -41 -561 194
-671 50 -23 71 -27 148 -27 82 0 96 3 157 33 134 65 227 199 250 357 37 262
-147 517 -383 531 -46 2 -89 -1 -114 -9z m279 -166 c91 -60 88 -194 -6 -251
-106 -64 -240 40 -208 161 12 43 45 87 74 99 38 16 109 11 140 -9z"/>
<path d="M5068 6013 c6 -2 18 -2 25 0 6 3 1 5 -13 5 -14 0 -19 -2 -12 -5z"/>
<path d="M5128 6003 c7 -3 16 -2 19 1 4 3 -2 6 -13 5 -11 0 -14 -3 -6 -6z"/>
<path d="M5236 5950 c12 -14 26 -34 32 -45 6 -11 12 -14 12 -7 0 7 -15 27 -32
45 -18 18 -23 21 -12 7z"/>
<path d="M5281 5854 c0 -11 3 -14 6 -6 3 7 2 16 -1 19 -3 4 -6 -2 -5 -13z"/>
<path d="M5257 5787 l-17 -32 20 24 c17 20 26 41 18 41 -2 0 -11 -15 -21 -33z"/>
<path d="M5214 5728 l-19 -23 23 19 c21 18 27 26 19 26 -2 0 -12 -10 -23 -22z"/>
<path d="M4111 5701 c-11 -11 -25 -39 -31 -63 -16 -69 -49 -124 -101 -173
-119 -112 -273 -132 -426 -58 -59 29 -91 59 -136 129 -28 42 -37 49 -69 52
-46 4 -88 -32 -88 -74 0 -84 128 -218 265 -277 197 -86 408 -52 565 90 72 65
124 149 147 234 18 71 14 108 -17 139 -26 26 -84 26 -109 1z"/>
<path d="M4650 5675 c13 -14 26 -25 28 -25 3 0 -5 11 -18 25 -13 14 -26 25
-28 25 -3 0 5 -11 18 -25z"/>
<path d="M2596 5630 c-20 -22 -36 -48 -35 -58 0 -12 3 -9 10 8 6 14 24 40 42
58 17 17 28 32 25 32 -3 0 -22 -18 -42 -40z"/>
<path d="M4823 5603 c9 -2 23 -2 30 0 6 3 -1 5 -18 5 -16 0 -22 -2 -12 -5z"/>
<path d="M4923 5603 c9 -2 23 -2 30 0 6 3 -1 5 -18 5 -16 0 -22 -2 -12 -5z"/>
<path d="M3103 5565 c0 -22 2 -30 4 -17 2 12 2 30 0 40 -3 9 -5 -1 -4 -23z"/>
<path d="M3054 5468 l-29 -33 33 29 c30 28 37 36 29 36 -2 0 -16 -15 -33 -32z"/>
<path d="M2590 5456 c0 -3 9 -10 20 -16 11 -6 20 -8 20 -6 0 3 -9 10 -20 16
-11 6 -20 8 -20 6z"/>
<path d="M2670 5405 c14 -8 32 -14 40 -14 8 0 0 6 -19 14 -42 19 -54 19 -21 0z"/>
<path d="M4159 2703 c-13 -16 -12 -17 4 -4 9 7 17 15 17 17 0 8 -8 3 -21 -13z"/>
<path d="M3988 2623 c7 -3 16 -2 19 1 4 3 -2 6 -13 5 -11 0 -14 -3 -6 -6z"/>
</g>
</svg>
